<svg viewBox="0 0 36 48" fill="none" xmlns="http://www.w3.org/2000/svg">
<path d="M0.331182 5.49238C0.418204 2.42611 2.93249 0 6 0C9.06751 0 11.5818 2.4261 11.6688 5.49238C11.8139 10.6058 12 18.2776 12 24C12 29.7224 11.8139 37.3942 11.6688 42.5076C11.5818 45.5739 9.06751 48 6 48C2.93249 48 0.418204 45.5739 0.331182 42.5076C0.186061 37.3942 0 29.7224 0 24C0 18.2776 0.186061 10.6058 0.331182 5.49238Z" fill="currentColor"/>
<path d="M23.8312 5.49238C23.9182 2.42611 26.4325 0 29.5 0C32.5675 0 35.0818 2.4261 35.1688 5.49238C35.3139 10.6058 35.5 18.2776 35.5 24C35.5 29.7224 35.3139 37.3942 35.1688 42.5076C35.0818 45.5739 32.5675 48 29.5 48C26.4325 48 23.9182 45.5739 23.8312 42.5076C23.6861 37.3942 23.5 29.7224 23.5 24C23.5 18.2776 23.6861 10.6058 23.8312 5.49238Z" fill="currentColor"/>
</svg>
